<?xml version="1.0" standalone="no"?>
<!DOCTYPE svg PUBLIC "-//W3C//DTD SVG 1.1//EN" "http://www.w3.org/Graphics/SVG/1.1/DTD/svg11.dtd" >
<svg xmlns="http://www.w3.org/2000/svg">
<metadata>Generated by IcoMoon</metadata>
<defs>
<font id="icomoon" horiz-adv-x="1024">
<font-face units-per-em="1024" ascent="960" descent="-64" />
<missing-glyph horiz-adv-x="1024" />
<glyph unicode="&#x20;" horiz-adv-x="512" d="" />
<glyph unicode="&#xe900;" glyph-name="angle-down" d="M1018.171 644.923c-0.005-21.75-8.824-41.438-23.079-55.69l-430.317-430.317c-14.254-14.249-33.943-23.063-55.69-23.063s-41.436 8.813-55.69 23.063l-430.316 430.316c-14.836 14.344-24.047 34.425-24.047 56.658 0 43.503 35.266 78.769 78.769 78.769 22.233 0 42.314-9.211 56.637-24.025l0.021-0.022 374.626-374.626 374.626 374.626c14.254 14.249 33.942 23.063 55.69 23.063 43.497 0 78.76-35.257 78.769-78.751v-0.001z" />
<glyph unicode="&#xe901;" glyph-name="angle-left" d="M829.636 840.17l-393.891-393.87 393.826-393.826-119.83-119.83-513.656 513.656 513.699 513.699z" />
<glyph unicode="&#xe902;" glyph-name="angle-right" d="M315.915 960l513.699-513.699-513.699-513.699-119.83 119.83 393.826 393.826-393.826 393.913z" />
<glyph unicode="&#xe903;" glyph-name="angle-up" d="M0 251.077c0 23.631 7.877 39.385 23.631 55.138l433.231 433.231c31.508 31.508 78.769 31.508 110.277 0l433.231-433.231c31.508-31.508 31.508-78.769 0-110.277s-78.769-31.508-110.277 0c0 0 0 0 0 0l-378.092 378.092-378.092-378.092c-31.508-31.508-78.769-31.508-110.277 0-15.754 15.754-23.631 39.385-23.631 55.138z" />
<glyph unicode="&#xe904;" glyph-name="arrow-right" d="M641.325 92.853v0c8.814-8.849 21.010-14.325 34.485-14.325s25.67 5.476 34.483 14.323l323.646 323.646c7.042 7.024 11.399 16.737 11.399 27.467s-4.357 20.444-11.398 27.466l-323.705 323.886c-8.814 8.849-21.010 14.325-34.485 14.325s-25.67-5.476-34.483-14.323l-0.002-0.002c-8.849-8.814-14.325-21.010-14.325-34.485s5.476-25.67 14.323-34.483l0.002-0.002 282.022-282.564-282.383-282.383c-8.627-8.758-13.955-20.788-13.955-34.062 0-13.484 5.497-25.684 14.373-34.482l0.004-0.003zM45.176 495.706h911.601c24.95 0 45.176-20.226 45.176-45.176v0c0-24.95-20.226-45.176-45.176-45.176v0h-911.601c-24.95 0-45.176 20.226-45.176 45.176v0c0 24.95 20.226 45.176 45.176 45.176v0z" />
<glyph unicode="&#xe905;" glyph-name="calendar" d="M959.16 7.639h-914.514c-24.612 0-44.564 19.952-44.564 44.564v0 727.531c0 24.612 19.952 44.564 44.564 44.564v0h914.596c0.012 0 0.027 0 0.041 0 24.59 0 44.524-19.934 44.524-44.524 0-0.014 0-0.029 0-0.043v0.002-727.613c0-0.012 0-0.027 0-0.041 0-24.59-19.934-44.524-44.524-44.524-0.014 0-0.029 0-0.043 0h0.002zM89.088 96.727h825.508v638.484h-825.508v-638.484zM788.357 660.787c-0.012 0-0.027 0-0.041 0-24.59 0-44.524 19.934-44.524 44.524 0 0.014 0 0.029 0 0.043v-0.002 148.48c0.751 24.024 20.407 43.214 44.544 43.214s43.793-19.189 44.542-43.145l0.002-0.069v-148.48c0-0.012 0-0.027 0-0.041 0-24.59-19.934-44.524-44.524-44.524-0.014 0-0.029 0-0.043 0h0.002zM220.365 660.787c-0.012 0-0.027 0-0.041 0-24.59 0-44.524 19.934-44.524 44.524 0 0.014 0 0.029 0 0.043v-0.002 148.48c0.751 24.024 20.407 43.214 44.544 43.214s43.793-19.189 44.542-43.145l0.002-0.069v-148.48c0-0.012 0-0.027 0-0.041 0-24.59-19.934-44.524-44.524-44.524-0.014 0-0.029 0-0.043 0h0.002zM956.621 516.813h-905.789c-12.306 0-22.282 9.976-22.282 22.282s9.976 22.282 22.282 22.282h905.789c12.306 0 22.282-9.976 22.282-22.282s-9.976-22.282-22.282-22.282v0zM252.969 426.332h-86.426v-86.221h86.426v86.385zM402.555 426.332h-86.385v-86.221h86.385v86.385zM552.182 426.332h-86.508v-86.221h86.508v86.385zM701.809 426.332h-86.508v-86.221h86.508v86.385zM851.354 426.332h-86.385v-86.221h86.385v86.385zM252.969 287.519h-86.426v-86.426h86.426v86.426zM402.555 287.519h-86.385v-86.426h86.385v86.426zM552.182 287.519h-86.508v-86.426h86.508v86.426zM701.809 287.519h-86.508v-86.426h86.508v86.426zM851.354 287.519h-86.385v-86.426h86.385v86.426z" />
<glyph unicode="&#xe906;" glyph-name="carat-right" d="M232.727 959.907l531.921-497.571-531.921-497.571z" />
<glyph unicode="&#xe907;" glyph-name="carat-up" d="M512 693.76l512-491.52h-1024z" />
<glyph unicode="&#xe908;" glyph-name="close-modal" d="M390.916 283.429c-24.005 0.015-43.46 19.479-43.46 43.487 0 12.002 4.862 22.868 12.724 30.737l241.981 242.121c7.866 7.866 18.733 12.731 30.736 12.731 24.007 0 43.468-19.461 43.468-43.468 0-12.003-4.865-22.87-12.731-30.736l-241.935-242.051c-7.862-7.863-18.723-12.727-30.721-12.727-0.005 0-0.011 0-0.016 0h0.001zM633.037 283.429c-0.016 0-0.035 0-0.054 0-11.986 0-22.835 4.864-30.682 12.727l-241.982 242.122c-7.866 7.866-12.731 18.733-12.731 30.736 0 24.007 19.461 43.468 43.468 43.468 12.003 0 22.87-4.865 30.736-12.731l241.981-242.121c7.861-7.868 12.723-18.734 12.723-30.736 0-24.008-19.454-43.471-43.458-43.487h-0.001zM511.884-64c-282.724 0.077-511.888 229.288-511.888 512.023 0 282.783 229.241 512.023 512.023 512.023s512.023-229.241 512.023-512.023c0-141.396-57.314-269.406-149.977-362.064v0c-92.154-92.633-219.721-149.961-360.677-149.961-0.529 0-1.057 0.001-1.586 0.002h0.082zM511.884 873.050c-234.68-0.074-424.897-190.336-424.897-425.026 0-234.736 190.291-425.026 425.026-425.026s425.026 190.291 425.026 425.026c0 117.394-47.594 223.672-124.539 300.591l-0.001 0.001c-76.506 76.868-182.392 124.436-299.387 124.436-0.432 0-0.863-0.001-1.295-0.002h0.067z" />
<glyph unicode="&#xe909;" glyph-name="create" d="M511.908-64c-282.772 0.019-511.997 229.256-511.997 512.031 0 282.787 229.244 512.031 512.031 512.031s512.031-229.244 512.031-512.031c0-141.371-57.293-269.361-149.926-362.016l0.001 0.001c-92.161-92.666-219.751-150.017-360.736-150.017-0.493 0-0.985 0.001-1.477 0.002h0.076zM511.908 873.011c-234.718-0.034-424.982-190.318-424.982-425.042 0-234.744 190.298-425.042 425.042-425.042s425.042 190.298 425.042 425.042c0 117.387-47.586 223.659-124.521 300.579l-0.001 0.001c-76.487 76.883-182.364 124.464-299.355 124.464-0.431 0-0.861-0.001-1.291-0.002h0.067zM511.725-64v0c-0.416-0.001-0.908-0.002-1.401-0.002-140.924 0-268.465 57.301-360.595 149.874l-0.020 0.020c-12.532 12.715-24.452 25.675-35.334 39.185-6.063 7.428-9.737 17.014-9.737 27.459 0 7.883 2.093 15.278 5.753 21.658l-0.112-0.212c10.848 19.841 26.664 35.774 45.807 46.462l0.591 0.303c61.199 29.875 132.23 53.245 206.755 66.515l4.941 0.729c-18.456 15.464-31.164 37.255-34.78 61.997l-0.065 0.539c-0.611 5.685-1.161 11.431-1.895 17.239-17.483 9.179-29.694 26.339-31.827 46.506l-0.022 0.259-8.864 84.666c-0.191 1.789-0.299 3.865-0.299 5.966 0 17.68 7.698 33.562 19.925 44.477l0.058 0.051-2.201 21.701c-1.861 9.326-2.926 20.048-2.926 31.018 0 45.531 18.348 86.777 48.053 116.747l-0.012-0.012c42.751 34.976 97.96 56.171 158.12 56.171 60.905 0 116.736-21.724 160.167-57.846l-0.408 0.33c28.859-29.688 46.654-70.264 46.654-114.997 0-10.981-1.072-21.711-3.118-32.091l0.172 1.047-2.384-22.19c12.227-10.869 19.892-26.639 19.892-44.2 0-2.196-0.12-4.363-0.353-6.497l0.023 0.264-8.864-84.666c-1.951-20.53-14.23-37.807-31.521-46.733l-0.328-0.154-2.14-18.339c-3.547-24.939-16.099-46.435-34.197-61.492l-0.158-0.128c78.816-13.844 149.276-36.982 214.822-68.681l-4.838 2.11c20.444-11.043 36.825-27.326 47.682-47.074l0.306-0.608c3.564-6.158 5.667-13.547 5.667-21.427 0-10.464-3.708-20.063-9.883-27.552l0.059 0.074c-94.687-115.678-237.455-188.943-397.337-189.016h-0.012zM209.373 149.285l2.017-2.017c76.938-76.873 183.191-124.415 300.549-124.415s223.612 47.542 300.552 124.418l-0.003-0.003c0.55 0.672 1.284 1.223 1.895 1.834-62.459 28.76-134.92 49.549-210.973 58.652l-3.474 0.339c-21.7 2.682-38.333 21.006-38.333 43.214 0 2.158 0.157 4.28 0.46 6.354l-0.028-0.236 8.681 59.602c1.915 12.714 9.126 23.443 19.272 30.035l0.168 0.102c5.656 3.306 10.257 7.848 13.537 13.279l0.095 0.17 6.113 54.101c2.115 16.992 13.759 30.804 29.341 36.039l0.307 0.089h0.611l3.24 30.565-2.384 1.467c-11.342 7.993-18.661 21.036-18.661 35.788 0 1.865 0.117 3.703 0.344 5.507l-0.022-0.215 6.113 55.323c1.675 6.272 2.638 13.473 2.638 20.899 0 20.386-7.252 39.078-19.317 53.637l0.113-0.14c-27.535 21.341-62.571 34.21-100.612 34.21-37.187 0-71.501-12.298-99.098-33.048l0.424 0.305c-12.831-14.688-20.655-34.035-20.655-55.21 0-7.403 0.956-14.582 2.752-21.422l-0.131 0.586 6.113-55.384c0.184-1.5 0.289-3.236 0.289-4.997 0-14.951-7.57-28.134-19.087-35.924l-0.153-0.098c-0.672-0.489-1.284-0.917-1.956-1.284l3.118-30.565h0.795c15.881-5.337 27.518-19.143 29.626-35.914l0.022-0.214c2.201-18.339 4.218-36.678 6.113-55.568 3.828-4.545 8.216-8.447 13.099-11.658l0.227-0.14c10.536-6.733 17.9-17.637 19.778-30.328l0.029-0.237 8.314-59.113c0.292-1.895 0.459-4.081 0.459-6.306 0-22.196-16.615-40.512-38.086-43.189l-0.213-0.022c-79.474-9.517-151.864-30.3-218.851-60.866l4.588 1.875z" />
<glyph unicode="&#xe90a;" glyph-name="date" d="M1004.16-4.864h-957.632c-25.767 0-46.656 20.889-46.656 46.656v0 761.6c0 25.767 20.889 46.656 46.656 46.656v0h957.632c25.767 0 46.656-20.889 46.656-46.656v0-761.6c0-25.767-20.889-46.656-46.656-46.656v0zM93.184 88.448h864.384v668.48h-864.384v-668.544zM825.472 679.232c-25.767 0-46.656 20.889-46.656 46.656v0 155.456c0 25.767 20.889 46.656 46.656 46.656s46.656-20.889 46.656-46.656v-155.456c0-25.767-20.889-46.656-46.656-46.656v0zM230.72 679.232c-25.767 0-46.656 20.889-46.656 46.656v0 155.456c0 25.767 20.889 46.656 46.656 46.656s46.656-20.889 46.656-46.656v-155.456c0-25.767-20.889-46.656-46.656-46.656v0zM1001.6 528.256h-948.416c-12.884 0-23.328 10.444-23.328 23.328s10.444 23.328 23.328 23.328v0h948.416c12.884 0 23.328-10.444 23.328-23.328s-10.444-23.328-23.328-23.328v0zM264.832 433.536h-90.496v-90.496h90.496v90.496zM421.504 433.536h-90.496v-90.496h90.496v90.496zM578.112 433.536h-90.56v-90.496h90.56v90.496zM734.784 433.536h-90.56v-90.496h90.56v90.496zM891.392 433.536h-90.496v-90.496h90.496v90.496zM264.832 288.192h-90.496v-90.432h90.496v90.432zM421.504 288.192h-90.496v-90.432h90.496v90.432zM578.112 288.192h-90.56v-90.432h90.56v90.432zM734.784 288.192h-90.56v-90.432h90.56v90.432zM891.392 288.192h-90.496v-90.432h90.496v90.432z" />
<glyph unicode="&#xe90b;" glyph-name="edoc" d="M636.833-41.615c-11.64 0-21.075 9.436-21.075 21.075v0 220.327c0 11.64 9.436 21.075 21.075 21.075v0h220.279c11.344-0.393 20.39-9.684 20.39-21.087s-9.047-20.694-20.355-21.086l-0.036-0.001h-199.18v-199.228c-0.027-11.629-9.447-21.048-21.073-21.075h-0.003zM636.833-62.69c-23.295 0.013-42.175 18.901-42.175 42.198 0 11.653 4.723 22.202 12.36 29.839l220.279 220.279c7.406 6.584 17.216 10.606 27.966 10.606 23.292 0 42.175-18.882 42.175-42.175 0-10.75-4.022-20.561-10.643-28.009l0.037 0.043-220.279-220.327c-7.611-7.635-18.139-12.359-29.769-12.359-0.016 0-0.032 0-0.048 0h0.003zM742.281-62.69c-23.295 0.013-42.175 18.901-42.175 42.198 0 11.653 4.723 22.202 12.36 29.839l115.974 115.974c7.506 6.99 17.607 11.281 28.71 11.281 23.292 0 42.175-18.882 42.175-42.175 0-11.139-4.318-21.269-11.372-28.808l0.022 0.024-115.974-115.974c-7.615-7.635-18.145-12.359-29.779-12.359-0.013 0-0.025 0-0.038 0h0.002zM535.004 572.857h-215.635c-11.646 0-21.087 9.441-21.087 21.087s9.441 21.087 21.087 21.087h215.635c11.646 0 21.087-9.441 21.087-21.087s-9.441-21.087-21.087-21.087v0zM677.34 461.836h-357.971c-11.646 0-21.087 9.441-21.087 21.087s9.441 21.087 21.087 21.087h357.971c11.646 0 21.087-9.441 21.087-21.087s-9.441-21.087-21.087-21.087v0zM677.34 350.72h-357.971c-11.646 0-21.087 9.441-21.087 21.087s9.441 21.087 21.087 21.087h357.971c11.646 0 21.087-9.441 21.087-21.087s-9.441-21.087-21.087-21.087v0zM469.254 239.842h-149.885c-11.646 0-21.087 9.441-21.087 21.087s9.441 21.087 21.087 21.087h149.885c11.646 0 21.087-9.441 21.087-21.087s-9.441-21.087-21.087-21.087v0zM857.112-62.714h-695.868c-0.007 0-0.015 0-0.024 0-23.279 0-42.151 18.872-42.151 42.151 0 0.008 0 0.017 0 0.025v-0.001 896.19c0 0.014 0 0.031 0 0.048 0 23.266 18.861 42.127 42.127 42.127 0.017 0 0.034 0 0.050 0h695.865c0.007 0 0.015 0 0.024 0 23.279 0 42.151-18.872 42.151-42.151 0-0.008 0-0.017 0-0.025v0.001-896.19c-0.014-23.287-18.888-42.161-42.173-42.175h-0.001zM203.419 21.635h611.518v811.841h-611.542v-811.841zM651.502 780.776h-284.672c-49.498 0-89.624 40.126-89.624 89.624s40.126 89.624 89.624 89.624h284.672c49.498 0 89.624-40.126 89.624-89.624s-40.126-89.624-89.624-89.624v0zM366.83 875.675c-2.913 0-5.275-2.362-5.275-5.275s2.362-5.275 5.275-5.275v0h284.672c2.913 0 5.275 2.362 5.275 5.275s-2.362 5.275-5.275 5.275v0z" />
<glyph unicode="&#xe90c;" glyph-name="favorite" d="M832.061 890.655c-17.36 4.613-37.291 7.263-57.841 7.263-41.58 0-80.627-10.847-114.466-29.865l1.176 0.607c-56.030-31.846-102.132-75.067-136.383-126.817l-0.914-1.47c-4.669-6.922-9.052-13.967-13.271-21.135-56.893 97.034-161.997 189.071-279.634 178.463-110.643-9.748-200.248-89.335-224.938-193.989l-0.342-1.718c-26.583-124.477 51.036-238.305 126.976-329.073 70.92-82.239 143.602-157.011 220.477-227.271l2.017-1.818c47.35-44.237 95.232-88.31 144.916-129.966l2.376-2.007c2.22-1.798 5.079-2.887 8.192-2.887s5.972 1.089 8.217 2.906l-0.025-0.019c40.96 34.816 81.060 70.861 120.668 107.274 79.542 72.014 152.916 145.609 222.396 222.779l2.433 2.746c77.087 87.491 163.84 196.035 156.467 319.488-7.725 109.537-84.508 199.193-186.745 226.116l-1.753 0.392z" />
<glyph unicode="&#xe90d;" glyph-name="file" d="M615.825-20.725c-12.294 0-22.261 9.967-22.261 22.261v0 267.13c0 12.294 9.967 22.261 22.261 22.261v0h267.13c12.294 0 22.261-9.967 22.261-22.261s-9.967-22.261-22.261-22.261v0h-244.87v-244.87c0-12.294-9.967-22.261-22.261-22.261v0zM615.825-42.986h-459.999c-24.589 0-44.522 19.933-44.522 44.522v0 913.942c0 24.589 19.933 44.522 44.522 44.522v0h727.129c24.589 0 44.522-19.933 44.522-44.522v0-646.812c-0.003-12.293-4.987-23.422-13.045-31.477l-267.131-267.131c-8.055-8.057-19.184-13.042-31.476-13.045h-0.001zM200.348 46.058h397.045l241.041 241.041v583.858h-638.086v-824.899zM567.563 724.346h-261.565c-12.294 0-22.261 9.967-22.261 22.261s9.967 22.261 22.261 22.261v0h261.565c12.294 0 22.261-9.967 22.261-22.261s-9.967-22.261-22.261-22.261v0zM740.085 616.737h-434.087c-12.294 0-22.261 9.967-22.261 22.261s9.967 22.261 22.261 22.261v0h434.087c12.294 0 22.261-9.967 22.261-22.261s-9.967-22.261-22.261-22.261v0zM740.085 509.128h-434.087c-12.294 0-22.261 9.967-22.261 22.261s9.967 22.261 22.261 22.261v0h434.087c12.294 0 22.261-9.967 22.261-22.261s-9.967-22.261-22.261-22.261v0zM487.825 401.519h-181.827c-12.294 0-22.261 9.967-22.261 22.261s9.967 22.261 22.261 22.261v0h181.827c12.294 0 22.261-9.967 22.261-22.261s-9.967-22.261-22.261-22.261v0z" />
<glyph unicode="&#xe90e;" glyph-name="folder" d="M959.711-21.927h-913.987c-24.589 0-44.522 19.933-44.522 44.522v0 803.84c0 49.177 39.866 89.043 89.043 89.043v0h311.652c49.177 0 89.043-39.866 89.043-89.043v0-32.189h468.769c24.589 0 44.522-19.933 44.522-44.522v0-727.129c0-24.589-19.933-44.522-44.522-44.522v0zM90.246 67.117h824.943v638.13h-468.769c-24.589 0-44.522 19.933-44.522 44.522v0 76.711h-311.652v-759.318zM957.217 538.913h-912.696c-24.589 0-44.522 19.933-44.522 44.522s19.933 44.522 44.522 44.522v0h912.696c24.589 0 44.522-19.933 44.522-44.522s-19.933-44.522-44.522-44.522v0z" />
<glyph unicode="&#xe90f;" glyph-name="goverment" d="M957.408 505.632h-890.912c-0.010 0-0.021 0-0.032 0-21.429 0-38.8 17.371-38.8 38.8 0 13.259 6.651 24.965 16.798 31.963l0.13 0.085 445.472 304.736c6.132 4.249 13.729 6.788 21.92 6.788s15.788-2.539 22.049-6.873l-0.129 0.084 445.44-304.736c10.257-7.089 16.893-18.786 16.893-32.032 0-21.437-17.379-38.816-38.816-38.816-0.004 0-0.009 0-0.013 0h0.001zM192.048 583.344h639.872l-319.92 218.848-320-218.848zM178.752 121.808c-0.014 0-0.031 0-0.048 0-21.42 0-38.784 17.364-38.784 38.784 0 0.017 0 0.034 0 0.051v-0.003 368.832c0.442 21.105 17.655 38.044 38.824 38.044s38.382-16.939 38.823-38.003l0.001-0.041v-368.832c0-0.005 0-0.010 0-0.016 0-21.437-17.379-38.816-38.816-38.816-0.006 0-0.011 0-0.017 0h0.001zM845.216 121.808c-0.014 0-0.031 0-0.048 0-21.42 0-38.784 17.364-38.784 38.784 0 0.017 0 0.034 0 0.051v-0.003 368.832c0.442 21.105 17.655 38.044 38.824 38.044s38.382-16.939 38.823-38.003l0.001-0.041v-368.832c0-0.005 0-0.010 0-0.016 0-21.437-17.379-38.816-38.816-38.816-0.006 0-0.011 0-0.017 0h0.001zM345.344 121.808c-0.014 0-0.031 0-0.048 0-21.42 0-38.784 17.364-38.784 38.784 0 0.017 0 0.034 0 0.051v-0.003 368.832c0.442 21.105 17.655 38.044 38.824 38.044s38.382-16.939 38.823-38.003l0.001-0.041v-368.832c0-0.005 0-0.010 0-0.016 0-21.437-17.379-38.816-38.816-38.816-0.006 0-0.011 0-0.017 0h0.001zM512.016 121.808c-0.014 0-0.031 0-0.048 0-21.42 0-38.784 17.364-38.784 38.784 0 0.017 0 0.034 0 0.051v-0.003 368.832c0.442 21.105 17.655 38.044 38.824 38.044s38.382-16.939 38.823-38.003l0.001-0.041v-368.832c0-0.005 0-0.010 0-0.016 0-21.437-17.379-38.816-38.816-38.816-0.006 0-0.011 0-0.017 0h0.001zM678.624 121.808c-0.014 0-0.031 0-0.048 0-21.42 0-38.784 17.364-38.784 38.784 0 0.017 0 0.034 0 0.051v-0.003 368.832c0.442 21.105 17.655 38.044 38.824 38.044s38.382-16.939 38.823-38.003l0.001-0.041v-368.832c0-0.005 0-0.010 0-0.016 0-21.437-17.379-38.816-38.816-38.816-0.006 0-0.011 0-0.017 0h0.001zM907.52 116.992h-791.040c-0.235-0.005-0.511-0.008-0.788-0.008-21.446 0-38.832 17.386-38.832 38.832s17.386 38.832 38.832 38.832c0.277 0 0.554-0.003 0.829-0.009l-0.041 0.001h791.056c0.235 0.005 0.511 0.008 0.788 0.008 21.446 0 38.832-17.386 38.832-38.832s-17.386-38.832-38.832-38.832c-0.277 0-0.554 0.003-0.829 0.009l0.041-0.001zM985.184 5.36h-946.352c-0.235-0.005-0.511-0.008-0.788-0.008-21.446 0-38.832 17.386-38.832 38.832s17.386 38.832 38.832 38.832c0.277 0 0.554-0.003 0.829-0.009l-0.041 0.001h946.352c0.235 0.005 0.511 0.008 0.788 0.008 21.446 0 38.832-17.386 38.832-38.832s-17.386-38.832-38.832-38.832c-0.277 0-0.554 0.003-0.829 0.009l0.041-0.001z" />
<glyph unicode="&#xe910;" glyph-name="home" d="M518.4 686.848l-369.792-304.896c-0.016-0.69-0.124-1.349-0.312-1.973l0.014 0.053c-0.147-0.559-0.253-1.215-0.297-1.888l-0.002-0.032v-308.693c0.331-22.59 18.544-40.819 41.097-41.173h247.031v246.997h164.651v-246.997h246.955c22.605 0.331 40.842 18.568 41.173 41.142v308.724c0.007 0.138 0.012 0.299 0.012 0.461 0 1.217-0.239 2.379-0.674 3.44l0.022-0.061zM1029.717 451.371l-140.8 117.035v262.4c0.010 0.234 0.016 0.509 0.016 0.785 0 10.934-8.864 19.797-19.797 19.797-0.291 0-0.58-0.006-0.867-0.019l0.041 0.001h-123.477c-0.234 0.010-0.508 0.016-0.784 0.016-10.934 0-19.797-8.864-19.797-19.797 0-0.276 0.006-0.55 0.017-0.823l-0.001 0.039v-125.44l-156.885 131.2c-13.352 10.435-30.378 16.733-48.875 16.733s-35.523-6.298-49.051-16.866l0.176 0.133-462.464-385.237c-4.106-3.277-6.784-8.193-7.039-13.741l-0.001-0.041c-0.061-0.602-0.096-1.302-0.096-2.009 0-4.991 1.742-9.575 4.65-13.177l-0.031 0.040 39.851-47.573c3.411-3.786 8.094-6.369 13.371-7.071l0.112-0.012c0.419-0.026 0.908-0.041 1.4-0.041 5.279 0 10.158 1.712 14.112 4.611l-0.067-0.047 445.013 371.2 445.056-371.2c3.388-2.827 7.787-4.543 12.588-4.543 0.315 0 0.627 0.007 0.938 0.022l-0.044-0.002h1.963c5.387 0.722 10.068 3.302 13.466 7.063l0.017 0.019 39.893 47.616c2.741 3.488 4.397 7.942 4.397 12.782 0 0.818-0.047 1.625-0.139 2.418l0.009-0.097c-0.267 5.595-2.961 10.511-7.044 13.752l-0.038 0.029z" />
<glyph unicode="&#xe911;" glyph-name="lecturer" d="M776.040 424.751l-117.57 43.311-15.588-37.926 32.882-12.098-119.694-395.036-15.17 265.254h-46.649l-14.905-260.437-118.405 390.637 31.479 11.567-15.701 37.926-117.722-43.311c-109.882-59.207-183.301-173.447-183.301-304.835 0-8.84 0.332-17.602 0.985-26.275l-0.070 1.155v-3.034l1.024-2.844c1.024-2.769 25.107-64.74 141.35-64.74 4.324 0 8.799 0 13.388 0.303 55.106-47.825 158.834-75.852 281.979-75.852h5.879c96.597 0.683 219.174 21.201 282.662 75.852 4.399 0 8.723-0.265 12.895-0.265 116.243 0 140.326 61.971 141.35 64.74l1.062 2.844v3.034c0.592 7.575 0.929 16.403 0.929 25.309 0 131.303-73.324 245.48-181.259 303.818l-1.828 0.904zM781.843 110.383c-37.182-14.554-80.234-22.99-125.256-22.99-0.765 0-1.529 0.002-2.292 0.007l0.117-0.001c-9.747 0-16.953 0.379-21.011 0.683v24.5c9.012-0.979 19.463-1.537 30.045-1.537 42.841 0 83.544 9.152 120.261 25.609l-1.864-0.747zM484.2 375.068s-14.146-36.371-14.071-36.561l22.49-31.934h49.645l22.49 31.934c0 0.569-14.071 36.561-14.071 36.561-1.593-0.228-64.815-0.228-66.446 0.038zM356.352 587.454c28.975-84.727 83.437-149.087 161.109-149.087 74.79 0 130.086 63.45 160.009 147.911 60.378 60.871 46.118 106.193 32.161 128.152 32.806 157.013-67.432 245.57-197.86 245.57-233.851 0-193.043-256.228-193.043-256.228h0.759c-10.657-24.197-13.805-64.702 36.902-116.433zM579.319 792.254c19.941-29.206 48.079-51.508 81.093-63.79l1.169-0.381c-2.958-121.553-57.496-248.68-144.119-248.68-80.668 0-133.537 110.251-142.791 223.763 79.954 4.044 151.461 37.209 204.761 89.009l-0.075-0.072z" />
<glyph unicode="&#xe912;" glyph-name="list-view" d="M978.213-64h-932.295c-25.307 0.050-45.806 20.564-45.831 45.872v932.297c0.025 25.302 20.529 45.806 45.828 45.831h932.298c0.013 0 0.028 0 0.044 0 25.312 0 45.831-20.519 45.831-45.831v0-932.295c0-25.336-20.539-45.874-45.874-45.874v0zM91.748 27.748h840.591v840.547h-840.634v-840.547zM962.835 584.207h-901.8c-12.242 0.55-21.959 10.609-21.959 22.937s9.717 22.387 21.91 22.935l0.049 0.002h901.8c0.298 0.014 0.648 0.022 1 0.022 12.68 0 22.959-10.279 22.959-22.959s-10.279-22.959-22.959-22.959c-0.352 0-0.701 0.008-1.049 0.024l0.049-0.002zM962.835 273.543h-901.8c-12.656 0-22.915 10.26-22.915 22.915s10.26 22.915 22.915 22.915h901.8c12.656 0 22.915-10.26 22.915-22.915s-10.26-22.915-22.915-22.915v0zM667.332-21.96c0 0 0 0 0 0-12.632 0-22.872 10.24-22.872 22.872 0 0.031 0 0.061 0 0.092v-0.005 901.8c0 12.656 10.26 22.915 22.915 22.915s22.915-10.26 22.915-22.915v0-901.8c0-12.68-10.279-22.959-22.959-22.959v0zM356.581-21.96c0 0 0 0 0 0-12.632 0-22.872 10.24-22.872 22.872 0 0.031 0 0.061 0 0.092v-0.005 901.8c0.55 12.242 10.609 21.959 22.937 21.959s22.387-9.717 22.935-21.91l0.002-0.049v-901.8c-0.025-12.685-10.314-22.959-23.002-22.959 0 0 0 0 0 0v0z" />
<glyph unicode="&#xe913;" glyph-name="media" d="M979.567-29.852h-934.957c-24.589 0-44.522 19.933-44.522 44.522v0 315.169c0 24.589 19.933 44.522 44.522 44.522v0h289.391c24.589 0 44.522-19.933 44.522-44.522v0-62.954h267.13v62.954c0 24.589 19.933 44.522 44.522 44.522v0h289.391c24.589 0 44.522-19.933 44.522-44.522v0-315.169c0-24.589-19.933-44.522-44.522-44.522v0zM89.133 59.192h845.913v226.126h-200.348v-18.432c0-49.177-39.866-89.043-89.043-89.043v0h-267.13c-49.177 0-89.043 39.866-89.043 89.043v0 18.432h-200.348v-226.126zM929.614 292.174c-24.589 0-44.522 19.933-44.522 44.522v0 311.652h-734.609v-311.652c0-24.589-19.933-44.522-44.522-44.522s-44.522 19.933-44.522 44.522v0 356.174c0 24.589 19.933 44.522 44.522 44.522v0h823.652c24.589 0 44.522-19.933 44.522-44.522v0-356.174c0-24.589-19.933-44.522-44.522-44.522v0zM877.702 781.913h-719.827c-12.294 0-22.261 9.967-22.261 22.261s9.967 22.261 22.261 22.261v0h719.827c12.294 0 22.261-9.967 22.261-22.261s-9.967-22.261-22.261-22.261v0zM835.005 870.957h-634.568c-12.294 0-22.261 9.967-22.261 22.261s9.967 22.261 22.261 22.261v0h634.435c12.294 0 22.261-9.967 22.261-22.261s-9.967-22.261-22.261-22.261v0z" />
<glyph unicode="&#xe914;" glyph-name="member-contact" d="M799.195-58.286h-578.486c-52.184 0.084-94.465 42.365-94.549 94.541v776.17c1.282 21.913 19.366 39.199 41.487 39.199s40.205-17.285 41.482-39.086l0.005-0.113v-776.162c0-6.393 5.183-11.576 11.576-11.576v0h578.486c0.045-0.001 0.097-0.001 0.15-0.001 6.287 0 11.383 5.096 11.383 11.383 0 0.068-0.001 0.136-0.002 0.204v-0.010 655.612c0 0.018 0 0.038 0 0.059 0 6.36-5.156 11.516-11.516 11.516-0.005 0-0.011 0-0.016 0h0.001c-21.913 1.282-39.199 19.366-39.199 41.487s17.285 40.205 39.086 41.482l0.113 0.005c52.182-0.076 94.461-42.365 94.52-94.544v-655.618c-0.059-52.184-42.338-94.473-94.512-94.549h-0.007zM791.181 703.51h-536.754c-0.41-0.005-0.895-0.007-1.38-0.007-70.832 0-128.252 57.421-128.252 128.252s57.421 128.252 128.252 128.252c0.485 0 0.97-0.003 1.453-0.008l-0.074 0.001h597.779c21.913-1.282 39.199-19.366 39.199-41.487s-17.285-40.205-39.086-41.482l-0.113-0.005h-597.779c-24.998 0-45.264-20.265-45.264-45.264s20.265-45.264 45.264-45.264h536.754c21.913-1.282 39.199-19.366 39.199-41.487s-17.285-40.205-39.086-41.482l-0.113-0.005zM510.011 353.466c-65.224 0-118.324 58.294-118.324 129.944s53.1 129.989 118.324 129.989 118.205-58.338 118.205-129.989-52.981-129.944-118.205-129.944zM510.011 530.425c-19.13 0-35.35-21.534-35.35-47.015s16.221-46.97 35.35-46.97 35.232 21.534 35.232 46.97-16.102 47.015-35.232 47.015zM657.705 103.298h-295.52c-21.847 0.007-39.743 16.916-41.323 38.36l-0.008 0.136-6.634 95.514c-0.003 0.294-0.004 0.642-0.004 0.991 0 48.987 30.014 90.964 72.655 108.545l0.78 0.285c36.425 13.435 78.492 21.207 122.374 21.207 43.712 0 85.622-7.712 124.446-21.849l-2.529 0.805c43.537-17.591 73.696-59.509 73.696-108.472 0-0.594-0.004-1.187-0.013-1.779l0.001 0.089-6.515-95.173c-1.551-21.627-19.477-38.586-41.365-38.586-0.014 0-0.029 0-0.043 0h0.002zM400.963 186.272h218.067l3.814 56.632c-1.783 11.621-9.037 21.234-19.002 26.25l-0.202 0.092c-27.873 10.166-60.051 16.046-93.602 16.046-33.676 0-65.969-5.923-95.894-16.785l1.956 0.62c-10.038-5.206-17.197-14.765-19.014-26.108l-0.027-0.204 3.903-56.543z" />
<glyph unicode="&#xe915;" glyph-name="personal-liaison" d="M609.603-33.011c-0.027 0-0.058 0-0.090 0-12.402 0-22.456 10.054-22.456 22.456 0 0.032 0 0.063 0 0.095v-0.005 270.48c0 0.016 0 0.035 0 0.054 0 12.422 10.070 22.492 22.492 22.492 0.019 0 0.038 0 0.057 0h270.477c12.175-0.355 21.91-10.309 21.91-22.537s-9.735-22.182-21.877-22.536l-0.033-0.001h-247.916v-247.916c0-12.452-10.094-22.546-22.546-22.546v0zM609.639-55.539h-465.758c-0.011 0-0.023 0-0.036 0-24.874 0-45.038 20.164-45.038 45.038 0 0.013 0 0.025 0 0.038v-0.002 925.373c0 0.011 0 0.023 0 0.036 0 24.874 20.164 45.038 45.038 45.038 0.013 0 0.025 0 0.038 0h736.236c24.894 0 45.074-20.18 45.074-45.074v0-654.911c-0.001-12.446-5.047-23.714-13.204-31.87l-270.48-270.48c-8.152-8.158-19.416-13.204-31.86-13.204-0.004 0-0.007 0-0.011 0h0.001zM188.955 34.627h402.019l244.107 244.053v591.171h-646.108v-835.225zM560.775 721.39h-264.839c-0.19-0.006-0.413-0.009-0.636-0.009-12.452 0-22.546 10.094-22.546 22.546s10.094 22.546 22.546 22.546c0.224 0 0.447-0.003 0.669-0.010l-0.033 0.001h264.839c0.19 0.006 0.413 0.009 0.636 0.009 12.452 0 22.546-10.094 22.546-22.546s-10.094-22.546-22.546-22.546c-0.224 0-0.447 0.003-0.669 0.010l0.033-0.001zM735.448 612.451h-439.512c-0.19-0.006-0.413-0.009-0.636-0.009-12.452 0-22.546 10.094-22.546 22.546s10.094 22.546 22.546 22.546c0.224 0 0.447-0.003 0.669-0.010l-0.033 0.001h439.512c12.175-0.355 21.91-10.309 21.91-22.537s-9.735-22.182-21.877-22.536l-0.033-0.001zM735.448 503.494h-439.512c-0.19-0.006-0.413-0.009-0.636-0.009-12.452 0-22.546 10.094-22.546 22.546s10.094 22.546 22.546 22.546c0.224 0 0.447-0.003 0.669-0.010l-0.033 0.001h439.512c12.175-0.355 21.91-10.309 21.91-22.537s-9.735-22.182-21.877-22.536l-0.033-0.001zM480.040 394.536h-184.104c-0.19-0.006-0.413-0.009-0.636-0.009-12.452 0-22.546 10.094-22.546 22.546s10.094 22.546 22.546 22.546c0.224 0 0.447-0.003 0.669-0.010l-0.033 0.001h184.104c12.175-0.355 21.91-10.309 21.91-22.537s-9.735-22.182-21.877-22.536l-0.033-0.001z" />
<glyph unicode="&#xe916;" glyph-name="plus-circle" d="M511.794 233.274c-24.014 0-43.481 19.467-43.481 43.481v0 342.406c0 24.014 19.467 43.481 43.481 43.481s43.481-19.467 43.481-43.481v0-342.406c0-24.014-19.467-43.481-43.481-43.481v0zM683.038 404.519h-342.406c-24.014 0-43.481 19.467-43.481 43.481s19.467 43.481 43.481 43.481h342.406c24.014 0 43.481-19.467 43.481-43.481s-19.467-43.481-43.481-43.481v0zM511.711-64c-282.726 0.089-511.885 229.304-511.885 512.041 0 282.793 229.249 512.041 512.041 512.041s512.041-229.249 512.041-512.041c0-141.404-57.319-269.421-149.989-362.084v0c-92.177-92.633-219.762-149.959-360.736-149.959-0.518 0-1.035 0.001-1.553 0.002h0.081zM511.711 873.037c-234.592-0.108-424.724-190.307-424.724-424.913 0-234.673 190.24-424.913 424.913-424.913s424.913 190.24 424.913 424.913c0 117.353-47.573 223.595-124.487 300.491l-0.001 0.001c-76.509 76.86-182.392 124.423-299.384 124.423-0.433 0-0.867-0.001-1.3-0.002h0.068z" />
<glyph unicode="&#xe917;" glyph-name="profile" horiz-adv-x="1020" d="M369.276 399.382c-28.38-13.492-59.213-27.407-93.049-41.872-63.711-21.562-118.207-46.225-169.762-75.471l4.813 2.512c-71.901-49.57-102.396-155.391-110.77-225.601-0.624-2.396-0.982-5.146-0.982-7.979 0-16.445 12.064-30.072 27.824-32.515l0.184-0.024c149.935-43.352 252.627-82.39 482.161-82.39s330.999 39.038 482.161 82.39c15.948 2.42 28.029 16.034 28.029 32.469 0 2.859-0.366 5.633-1.053 8.277l0.050-0.228c-8.459 68.856-38.911 176.031-110.77 225.601-46.6 26.451-101.080 51.101-157.867 70.819l-7.083 2.14c-33.836 14.719-64.838 29.606-93.049 41.872l-4.229 94.571c-11.399-17.846-25.827-32.705-42.704-44.242l-0.521-0.336c26.466 28.783 46.87 63.586 58.907 102.085l0.517 1.918c32.801 30.409 53.445 73.534 54.052 121.488l0.001 0.11c0 14.845-2.707 37.812-21.613 37.812 1.153 10.915 1.811 23.58 1.811 36.399 0 42.090-7.090 82.524-20.14 120.173l0.777-2.576c-25.335 56.76-76.681 93.218-168.545 93.218-90.511 0-143.21-36.458-168.883-93.049-11.851-33.513-18.698-72.162-18.698-112.409 0-14.657 0.908-29.101 2.671-43.28l-0.172 1.694c-18.906 0-21.613-22.966-21.613-37.812 0-0.021 0-0.046 0-0.072 0-48.157 20.803-91.456 53.912-121.4l0.141-0.126c12.927-40.398 33.338-75.199 59.806-104.41l-0.212 0.238c-17.405 11.866-31.834 26.727-42.862 43.971l-0.363 0.607z" />
<glyph unicode="&#xe918;" glyph-name="profile-outline" d="M512.051-65.28c-134.404 0.069-266.176 11.117-394.531 32.296l14.013-1.909c-50.251 11.76-88.19 53.153-94.657 104.353l-0.063 0.607q-5.555 52.89-10.701 106.189c-0.132 2.263-0.207 4.911-0.207 7.575 0 51.194 27.735 95.91 68.999 119.941l0.661 0.355c74.522 36.393 160.993 64.444 251.792 79.752l5.641 0.786-1.434 9.702c-22.161 17.345-37.541 42.469-42.031 71.201l-0.081 0.633c-0.819 8.269-1.818 16.589-2.765 25.011-20.342 8.898-34.785 27.865-37.098 50.425l-0.022 0.263-10.445 100.198c-0.244 2.049-0.383 4.422-0.383 6.827 0 14.584 5.118 27.973 13.655 38.469l-0.088-0.112c3.12 3.836 6.574 7.2 10.377 10.133l0.145 0.107-3.277 30.182c-3.2 33.766-10.778 112.87 50.79 167.706 49.128 40.191 112.571 64.547 181.703 64.547 69.87 0 133.93-24.879 183.803-66.261l-0.475 0.383c59.93-53.453 52.429-132.429 49.229-166.144l-0.742-8.32c-0.87-7.68-1.69-14.925-2.56-22.042 3.847-2.987 7.21-6.3 10.149-9.968l0.091-0.118c8.528-10.464 13.695-23.963 13.695-38.669 0-2.413-0.139-4.793-0.41-7.133l0.027 0.285-10.24-100.070c-2.198-22.936-16.751-42.009-36.849-50.638l-0.399-0.152-3.098-26.086c-4.516-28.915-19.713-53.638-41.352-70.47l-0.248-0.186-1.331-9.754c95.729-15.911 181.58-43.708 261.244-82.275l-5.679 2.48c42.814-24.308 71.228-69.593 71.228-121.513 0-2.543-0.068-5.070-0.203-7.579l0.015 0.35-10.445-105.984c-6.469-51.577-44.020-92.857-93.058-104.787l-0.843-0.173c-114.659-19.373-246.797-30.486-381.517-30.566h-0.077zM352.538 577.792c2.335-0.395 4.377-0.92 6.349-1.594l-0.282 0.084c15.71-5.305 27.202-19.009 29.215-35.634l0.020-0.206c2.56-21.939 5.12-43.674 7.501-65.587 4.542-8.538 11.233-15.411 19.366-20.045l0.244-0.128c10.515-6.691 17.834-17.603 19.584-30.292l0.025-0.223 9.754-69.888c0.291-1.882 0.458-4.052 0.458-6.262 0-22.003-16.503-40.151-37.806-42.742l-0.207-0.021c-101.172-12.161-193.262-39.739-277.81-80.487l5.247 2.279c-13.326-9.586-21.957-24.972-22.169-42.386v-0.033c3.328-35.533 6.938-70.579 10.522-105.677 2.352-13.316 11.413-24.076 23.5-28.789l0.257-0.088c109.894-18.392 236.513-28.903 365.588-28.903 129.588 0 256.702 10.595 380.523 30.965l-13.49-1.832c11.961 4.939 20.666 15.588 22.78 28.456l0.029 0.216 10.445 105.446c-0.368 18.035-9.631 33.831-23.567 43.22l-0.19 0.121c-78.873 38.175-170.462 65.516-266.896 77.11l-4.156 0.407c-21.507 2.7-37.978 20.874-37.978 42.895 0 2.126 0.154 4.216 0.45 6.26l-0.028-0.233 10.086 70.374c1.924 12.682 9.153 23.371 19.311 29.9l0.171 0.103c8.268 4.754 14.854 11.611 19.149 19.852l0.128 0.269 7.68 65.843c2.042 16.843 13.555 30.551 28.983 35.751l0.303 0.089c1.684 0.605 3.7 1.13 5.775 1.48l0.215 0.030 4.966 47.949c-2.645 1.176-4.906 2.459-7.025 3.931l0.139-0.091c-11.392 7.917-18.756 20.939-18.756 35.68 0 1.789 0.108 3.552 0.319 5.284l-0.021-0.208 0.614 4.275c2.125 17.638 4.173 35.098 6.118 52.736l0.768 8.806c3.2 33.51 4.352 71.27-22.246 95.027-34.025 26.594-77.413 42.642-124.549 42.642-46.338 0-89.053-15.51-123.239-41.621l0.492 0.361c-28.16-25.216-26.957-62.976-23.757-96.563l7.322-65.92c0.181-1.483 0.285-3.2 0.285-4.94 0-14.779-7.45-27.817-18.799-35.566l-0.148-0.096c-1.903-1.335-4.073-2.559-6.36-3.565l-0.244-0.096 4.966-47.949z" />
<glyph unicode="&#xe919;" glyph-name="reserve" d="M876.664 224.507h-748.926c-0.036 0-0.078 0-0.121 0-18.785 0-34.013 15.228-34.013 34.013 0 0.042 0 0.085 0 0.127v-0.007 476.642c0 18.851 15.282 34.133 34.133 34.133v0h748.926c18.851 0 34.133-15.282 34.133-34.133v0-476.642c0-0.036 0-0.078 0-0.121 0-18.785-15.228-34.013-34.013-34.013-0.042 0-0.085 0-0.127 0h0.007zM161.692 292.593h680.92v408.556h-680.9v-408.556zM808.599 309.539h-612.834c-0.012 0-0.026 0-0.040 0-9.381 0-16.986 7.605-16.986 16.986 0 0.014 0 0.028 0 0.042v-0.002 340.47c0 0.006 0 0.013 0 0.020 0 9.392 7.614 17.006 17.006 17.006 0.007 0 0.014 0 0.021 0h612.833c9.403 0 17.027-7.623 17.027-17.027v0-340.47c0-0.006 0-0.013 0-0.020 0-9.392-7.614-17.006-17.006-17.006-0.007 0-0.014 0-0.021 0h0.001zM212.791 343.672h578.781v306.417h-578.721v-306.417zM981.695 125.199h-947.702c-0.743-0.058-1.609-0.090-2.482-0.090-18.851 0-34.133 15.282-34.133 34.133s15.282 34.133 34.133 34.133c0.873 0 1.739-0.033 2.596-0.097l-0.114 0.007h947.702c0.743 0.058 1.609 0.090 2.482 0.090 18.851 0 34.133-15.282 34.133-34.133s-15.282-34.133-34.133-34.133c-0.873 0-1.739 0.033-2.596 0.097l0.114-0.007z" />
<glyph unicode="&#xe91a;" glyph-name="search" d="M464.59 960v0c256.54 0 464.506-207.966 464.506-464.506s-207.966-464.506-464.506-464.506c-256.54 0-464.506 207.966-464.506 464.506v0c0.287 256.424 208.082 464.219 464.479 464.506h0.027zM464.59 199.341c161.446 2.807 291.245 134.343 291.245 296.195s-129.799 293.388-290.982 296.192l-0.263 0.004c-161.446-2.807-291.245-134.343-291.245-296.195s129.799-293.388 290.982-296.192l0.263-0.004zM939.95-64c-23.231 0.005-44.261 9.425-59.483 24.651l-206.803 206.803c-14.613 15.114-23.618 35.73-23.618 58.449 0 46.466 37.668 84.134 84.134 84.134 22.719 0 43.335-9.005 58.473-23.64l-0.024 0.023 206.802-206.802c15.22-15.224 24.633-36.254 24.633-59.483 0-46.46-37.658-84.124-84.115-84.134h-0.001z" />
<glyph unicode="&#xe91b;" glyph-name="star" d="M516.254 151.591l319.094-212.677-103.975 369.27 301.135 237.647-383.291 15.202-132.962 359.818-132.805-360.133-383.291-15.202 301.135-237.647-103.975-369.27z" />
<glyph unicode="&#xe91c;" glyph-name="table-view" d="M961.92 782.208h-576c-23.564 0-42.667 19.103-42.667 42.667s19.103 42.667 42.667 42.667v0h576c23.564 0 42.667-19.103 42.667-42.667s-19.103-42.667-42.667-42.667v0zM184.917 711.125h-142.251c-23.564 0-42.667 19.103-42.667 42.667v0 142.208c0 23.564 19.103 42.667 42.667 42.667v0h142.251c23.564 0 42.667-19.103 42.667-42.667v0-142.208c0-23.564-19.103-42.667-42.667-42.667v0zM85.333 796.459h56.917v56.875h-56.917v-56.875zM961.92 398.208h-576c-23.564 0-42.667 19.103-42.667 42.667s19.103 42.667 42.667 42.667v0h576c23.564 0 42.667-19.103 42.667-42.667s-19.103-42.667-42.667-42.667v0zM184.917 327.125h-142.251c-23.564 0-42.667 19.103-42.667 42.667v0 142.208c0 23.564 19.103 42.667 42.667 42.667v0h142.251c23.564 0 42.667-19.103 42.667-42.667v0-142.208c0-23.564-19.103-42.667-42.667-42.667v0zM85.333 412.459h56.917v56.875h-56.917v-56.875zM961.92 14.208h-576c-23.564 0-42.667 19.103-42.667 42.667s19.103 42.667 42.667 42.667v0h576c23.564 0 42.667-19.103 42.667-42.667s-19.103-42.667-42.667-42.667v0zM184.917-56.875h-142.251c-23.564 0-42.667 19.103-42.667 42.667v0 142.208c0 23.564 19.103 42.667 42.667 42.667v0h142.251c23.564 0 42.667-19.103 42.667-42.667v0-142.208c0-23.564-19.103-42.667-42.667-42.667v0zM85.333 28.459h56.917v56.875h-56.917v-56.875z" />
<glyph unicode="&#xe91d;" glyph-name="thumb" d="M192.171 426.301v-436.37c0-15.727-12.75-28.477-28.477-28.477v0h-110.836c-15.727 0-28.477 12.75-28.477 28.477v0 436.37c0 15.727 12.75 28.477 28.477 28.477h110.836c15.727 0 28.477-12.75 28.477-28.477v0zM910.141 3.828c9.752 28.867-10.581 56.661 3.511 79.921 16.628 27.404 44.861 29.989 50.030 70.51 3.56 27.746-16.286 50.615-5.851 74.021 11.995 26.917 36.23 33.499 38.717 71.631 3.072 47.153-22.333 37.888 0.78 77.044 14.070 17.973 22.562 40.903 22.562 65.815 0 3.542-0.172 7.043-0.507 10.497l0.034-0.439c-22.967 128.244-252.245 60.514-335.287 66.267-95.086 6.583-21.358 74.703 7.851 125.757 28.327 48.882 45.043 107.548 45.043 170.118 0 4.875-0.101 9.725-0.302 14.551l0.023-0.69c-4.535 53.053-29.842 123.904-85.090 130.438-80.652 9.509-66.658-76.946-89.722-131.657-57.051-135.704-155.063-209.969-261.071-305.835-42.764-38.717-76.995-73.533-76.995-122.49 0-88.649-1.073-217.527-1.073-301.885 0-92.989 30.72-116.2 128.39-124.148 130.292-10.581 261.315-42.667 391.899-42.667 60.514-0.195 143.799 3.998 167.058 73.24z" />
<glyph unicode="&#xe91e;" glyph-name="time" d="M512.107-64.036c-0.021 0-0.046 0-0.072 0-282.77 0-512 229.23-512 512s229.23 512 512 512c282.77 0 512-229.23 512-512v0c-0.366-282.597-229.336-511.593-511.889-512h-0.040zM512.107 872.221c-0.021 0-0.046 0-0.072 0-234.291 0-424.221-189.93-424.221-424.221s189.93-424.221 424.221-424.221c234.291 0 424.221 189.93 424.221 424.221v0c-0.326 234.135-190.021 423.855-424.115 424.221h-0.035zM512.107 404.093c-0.021 0-0.046 0-0.072 0-24.21 0-43.836 19.626-43.836 43.836 0 0.025 0 0.050 0 0.076v-0.004 316.69c0.698 23.704 20.081 42.654 43.889 42.654s43.191-18.95 43.888-42.59l0.001-0.064v-316.69c0-0.021 0-0.046 0-0.072 0-24.21-19.626-43.836-43.836-43.836-0.025 0-0.050 0-0.076 0h0.004zM512.107 843.773c-0.021 0-0.046 0-0.072 0-24.21 0-43.836 19.626-43.836 43.836 0 0.025 0 0.050 0 0.076v-0.004 28.448c0.698 23.704 20.081 42.654 43.889 42.654s43.191-18.95 43.888-42.59l0.001-0.064v-28.448c0-0.021 0-0.046 0-0.072 0-24.21-19.626-43.836-43.836-43.836-0.025 0-0.050 0-0.076 0h0.004zM512.107-64.036c-0.021 0-0.046 0-0.072 0-24.21 0-43.836 19.626-43.836 43.836 0 0.025 0 0.050 0 0.076v-0.004 28.448c0.698 23.704 20.081 42.654 43.889 42.654s43.191-18.95 43.888-42.59l0.001-0.064v-28.448c0-0.021 0-0.046 0-0.072 0-24.21-19.626-43.836-43.836-43.836-0.025 0-0.050 0-0.076 0h0.004zM980.129 404.129h-28.448c-24.239 0-43.889 19.65-43.889 43.889s19.65 43.889 43.889 43.889v0h28.448c24.239 0 43.889-19.65 43.889-43.889s-19.65-43.889-43.889-43.889v0zM72.356 404.129h-28.627c-24.239 0-43.889 19.65-43.889 43.889s19.65 43.889 43.889 43.889v0h28.627c24.239 0 43.889-19.65 43.889-43.889s-19.65-43.889-43.889-43.889v0zM711.64 771.811c-3.954 0.046-7.648 1.116-10.843 2.956l0.108-0.057c-6.644 3.871-11.037 10.962-11.037 19.078 0 4.027 1.082 7.802 2.971 11.050l-0.056-0.105 12.811 22.329c3.866 6.637 10.948 11.027 19.055 11.027 12.138 0 21.977-9.84 21.977-21.977 0-4.030-1.085-7.807-2.978-11.054l0.056 0.104-12.847-22.329c-3.839-6.632-10.9-11.022-18.986-11.022-0.018 0-0.036 0-0.054 0h0.003zM299.478 57.845c-12.112 0.003-21.93 9.823-21.93 21.936 0 4.031 1.087 7.808 2.985 11.054l-0.056-0.104 12.847 22.365c3.785 6.908 11.005 11.514 19.302 11.514 12.115 0 21.936-9.821 21.936-21.936 0-4.218-1.19-8.157-3.253-11.501l0.054 0.095-12.847-22.437c-3.839-6.632-10.9-11.022-18.986-11.022-0.018 0-0.036 0-0.054 0h0.003zM880.183 213.542c-3.955 0.020-7.654 1.093-10.838 2.954l0.103-0.056-22.294 12.811c-6.624 3.859-11.005 10.927-11.005 19.019 0 12.116 9.822 21.937 21.937 21.937 4.024 0 7.794-1.083 11.036-2.974l-0.104 0.056 22.294-12.811c6.607-3.862 10.976-10.922 10.976-19.001 0-12.115-9.821-21.936-21.936-21.936-0.009 0-0.018 0-0.027 0h0.001zM166.361 625.74c-3.955 0.023-7.654 1.096-10.839 2.954l0.104-0.056-22.437 12.847c-6.657 3.852-11.063 10.939-11.063 19.055 0 12.118 9.824 21.942 21.942 21.942 4.002 0 7.754-1.071 10.984-2.943l-0.105 0.056 22.437-12.847c6.678-3.845 11.101-10.943 11.101-19.073 0-12.080-9.764-21.879-21.831-21.935h-0.005zM312.432 771.811c-8.084 0.026-15.139 4.406-18.945 10.917l-0.056 0.104-12.847 22.329c-1.84 3.142-2.927 6.919-2.927 10.95 0 12.121 9.826 21.946 21.946 21.946 8.090 0 15.157-4.377 18.963-10.892l0.056-0.104 12.847-22.329c1.846-3.148 2.936-6.933 2.936-10.973 0-8.105-4.389-15.185-10.919-18.993l-0.104-0.056c-3.159-1.82-6.946-2.895-10.985-2.899h-0.001zM724.773 57.845c-0.043 0-0.094 0-0.145 0-7.97 0-14.944 4.265-18.765 10.636l-0.055 0.099-13.025 22.437c-1.87 3.164-2.974 6.973-2.974 11.039 0 12.137 9.839 21.975 21.975 21.975 8.070 0 15.124-4.35 18.945-10.833l0.056-0.103 13.025-22.437c1.851-3.151 2.944-6.941 2.944-10.986 0-12.135-9.837-21.971-21.971-21.971-0.003 0-0.007 0-0.010 0h0.001zM143.924 213.542c-0.011 0-0.024 0-0.037 0-12.095 0-21.9 9.805-21.9 21.9 0 8.165 4.468 15.286 11.093 19.052l0.108 0.057 22.437 12.811c3.116 1.803 6.855 2.866 10.843 2.866 12.117 0 21.939-9.823 21.939-21.939 0-8.129-4.421-15.226-10.991-19.017l-0.106-0.056-22.437-12.811c-3.141-1.797-6.903-2.858-10.913-2.863h-0.001zM857.89 625.74c-12.089 0.061-21.865 9.874-21.865 21.971 0 8.046 4.325 15.082 10.778 18.91l0.102 0.056 22.294 12.847c3.146 1.847 6.93 2.938 10.968 2.938 12.117 0 21.94-9.823 21.94-21.94 0-8.079-4.367-15.138-10.868-18.945l-0.104-0.056-22.294-12.847c-3.103-1.845-6.842-2.935-10.836-2.935-0.053 0-0.106 0-0.158 0.001h0.008zM379.348 271.584c-0.012 0-0.027 0-0.042 0-24.23 0-43.871 19.642-43.871 43.871 0 12.134 4.926 23.118 12.888 31.060l127.357 127.321c7.94 7.94 18.909 12.851 31.025 12.851 24.232 0 43.876-19.644 43.876-43.876 0-12.116-4.911-23.085-12.851-31.025l-127.356-127.32c-7.895-7.936-18.824-12.847-30.9-12.847-0.044 0-0.088 0-0.132 0h0.007z" />
<glyph unicode="&#xe91f;" glyph-name="vendor" d="M104.322-61.086h-88.568c0 164.911 142.903 299.071 318.559 299.071v-88.568c-126.771 0-230.006-94.413-230.006-210.519zM1009.601-61.086h-88.6c0 116.106-103.172 210.519-230.006 210.519v88.568c175.655 0 318.559-134.176 318.559-299.071zM512.709 203.8v0c-134.569 0.079-239.569 130.363-280.923 348.538-22.355 121.305 1.575 231.582 67.568 310.855 47.988 59.14 120.667 96.626 202.102 96.626 4.44 0 8.853-0.111 13.238-0.332l-0.616 0.025c3.24 0.321 7.003 0.505 10.809 0.505 0.681 0 1.36-0.006 2.038-0.018l-0.102 0.001c80.337-1.096 151.745-38.392 198.798-96.28l0.378-0.48c65.977-79.258 90.017-189.661 67.742-310.808-41.543-218.27-146.621-348.554-281.017-348.633zM498.719 915.716c-66.785-1.086-126.082-32.229-165.095-80.456l-0.32-0.409c-57.344-68.955-77.887-166.361-58.006-274.369 37.1-195.458 125.857-312.32 237.395-312.415s200.231 116.941 237.395 312.541c19.929 107.819-0.662 205.288-58.1 274.274-39.845 49.303-100.312 80.569-168.081 80.569-3.462 0-6.905-0.082-10.327-0.243l0.484 0.018c-6.995 0.268-11.201 0.41-15.36 0.41zM226.099 578.064c-0.021 0-0.046 0-0.071 0-1.711 0-3.349-0.312-4.86-0.882l0.095 0.031c-22.055-6.412-24.576-64.024-7.798-122.25 15.502-53.894 35.998-83.921 51.153-83.921 1.239 0.016 2.423 0.228 3.53 0.607l-0.080-0.024c15.281 5.088 21.961 45.024 11.563 105.251-9.295 56.099-32.863 101.187-53.563 101.187zM799.098 578.064c-20.59 0-44.19-45.088-53.453-101.187-10.319-60.227-3.734-100.163 11.595-105.251 0.999-0.363 2.151-0.576 3.352-0.583h0.003c15.139 0 35.698 30.027 51.184 83.921 16.778 58.289 14.257 115.838-7.782 122.25-1.463 0.539-3.152 0.851-4.914 0.851 0 0-0.001 0-0.001 0v0zM563.342 941.442c-17.329 0-35.021-0.662-52.87-2.127-17.896 1.465-35.777 2.127-53.090 2.127-15.328 0-30.247-0.567-44.379-1.686-39.542-4.77-73.374-25.893-95.013-56.296l-0.282-0.418c-15.592-10.243-27.128-25.559-32.333-43.562l-0.136-0.549c-1.717-7.609-3.356-15.502-5.183-23.426-7.498-17.091-12.084-36.969-12.599-57.858l-0.004-0.195c-11.422-54.508-20.48-104.511-15.896-120.186 1.238-0.48 2.672-0.758 4.17-0.758 0.074 0 0.147 0.001 0.221 0.002h-0.011c7.168 0 20.937 5.356 25.852 44.41 3.151 24.923 1.245 54.067 3.623 79.573 23.379 20.275 61.062 49.955 104.59 49.955h1.465c23.631-13.202 44.946-15.896 65.048-28.688 16.061-5.418 34.557-8.544 53.784-8.544s37.723 3.127 55.009 8.899l-1.225-0.355c20.149 12.808 41.354 15.502 65.126 28.688h1.386c43.528 0 81.306-29.664 104.637-49.955 2.426-25.505 0.52-54.65 3.639-79.573 4.868-39.054 18.59-44.41 25.726-44.41 0.051-0.001 0.111-0.001 0.171-0.001 1.544 0 3.023 0.278 4.39 0.786l-0.087-0.028c4.521 15.675-4.38 65.662-15.896 120.186-0.545 21.086-5.128 40.961-12.999 59.076l0.396-1.023c-1.764 7.877-3.497 15.754-5.136 23.426-5.32 18.55-16.842 33.867-32.129 43.93l-0.292 0.181c-21.92 30.823-55.752 51.946-94.644 56.65l-0.651 0.064c-14.178 1.119-29.176 1.686-44.552 1.686zM350.917 464.668h-0.268c-29.991 0.258-56.998 12.819-76.262 32.874l-0.034 0.036c-15.652 16.328-25.289 38.53-25.289 62.982 0 1.364 0.030 2.72 0.089 4.069l-0.007-0.192 0.709 18.779c0.258 6.362 1.054 12.382 2.348 18.214l-0.127-0.68 2.694 12.398 12.083 3.986c29.321 9.796 63.080 15.448 98.159 15.448 37.488 0 73.469-6.455 106.891-18.314l-2.235 0.691 11.689-4.080 2.71-12.083c1.199-5.061 2.049-10.998 2.368-17.076l0.011-0.253 0.709-18.070c0.032-0.883 0.050-1.921 0.050-2.964 0-23.39-9.103-44.655-23.959-60.444l0.042 0.045c-19.459-20.638-46.607-33.842-76.842-35.014l-0.21-0.006-35.383-0.394zM294.014 579.009l-0.52-16.258c-0.034-0.667-0.053-1.449-0.053-2.235 0-12.726 5.068-24.267 13.297-32.717l-0.010 0.010c11.243-11.564 26.909-18.778 44.26-18.904h0.024l34.060 0.362c18.022 0.731 34.097 8.499 45.662 20.612l0.025 0.026c7.602 7.883 12.285 18.625 12.285 30.46 0 0.368-0.005 0.736-0.014 1.102l0.001-0.054-0.614 15.754c-23.148 7.078-49.755 11.153-77.314 11.153-25.25 0-49.701-3.421-72.914-9.825l1.921 0.452zM639.953 464.668h-0.268c-29.947 0.231-56.919 12.781-76.134 32.825l-0.036 0.038c-15.744 16.344-25.442 38.607-25.442 63.135 0 1.326 0.028 2.646 0.085 3.959l-0.006-0.187 0.709 18.905c0.344 6.255 1.147 12.098 2.387 17.778l-0.134-0.732 2.379 12.713 12.398 4.080c29.318 9.796 63.075 15.447 98.151 15.447 37.485 0 73.463-6.454 106.882-18.312l-2.234 0.691 12.004-4.159 2.521-12.493c1.098-4.864 1.901-10.613 2.239-16.486l0.013-0.292 0.662-18.385c0.037-0.951 0.058-2.068 0.058-3.19 0-23.168-9.016-44.231-23.731-59.87l0.042 0.045c-19.463-20.728-46.678-33.981-76.992-35.109l-0.202-0.006-35.383-0.362zM582.955 579.009l-0.536-15.754c-0.032-0.659-0.051-1.431-0.051-2.208 0-12.905 5.099-24.62 13.393-33.238l-0.015 0.015c11.251-11.553 26.912-18.763 44.257-18.904h0.027l34.091 0.362c17.989 0.719 34.034 8.491 45.549 20.609l0.027 0.028c7.547 7.796 12.199 18.436 12.199 30.161 0 0.474-0.008 0.945-0.023 1.415l0.002-0.069-0.583 15.848c-23.138 7.021-49.73 11.063-77.267 11.063-25.275 0-49.754-3.405-73.004-9.782l1.932 0.452zM560.569 536.474h-85.071v44.284h85.071v-44.284z" />
<glyph unicode="&#xe920;" glyph-name="video" d="M512 921.114c-261.241-0.165-472.954-211.98-472.954-473.243 0-194.751 117.639-362.027 285.734-434.642l3.069-1.18c54.349-23.581 117.648-37.298 184.151-37.298 261.369 0 473.25 211.881 473.25 473.25 0 194.866-117.776 362.223-286.027 434.773l-3.072 1.179c-54.061 23.495-117.033 37.163-183.197 37.163-0.336 0-0.671 0-1.006-0.001h0.052zM512 960c282.77 0 512-229.23 512-512s-229.23-512-512-512c-282.77 0-512 229.23-512 512v0c0 282.77 229.23 512 512 512v0zM768.285 437.021l-351.491-252.63v505.26z" />
<glyph unicode="&#xe921;" glyph-name="view" d="M0 457.362c522.045-606.549 1011.419 0 1011.419 0-559.299 582.071-1011.419 0-1011.419 0zM496.396 219.599c-127.964 2.626-230.693 106.98-230.693 235.327 0 129.993 105.38 235.374 235.374 235.374s235.374-105.38 235.374-235.374c0-0.001 0-0.002 0-0.003v0c-1.345-130.259-107.252-235.337-237.702-235.337-0.827 0-1.653 0.004-2.478 0.013l0.126-0.001zM554.813 442.831c-35.838 2.292-64.038 31.921-64.038 68.136 0 33.711 24.436 61.716 56.561 67.267l0.406 0.058c-15.133 6.414-32.731 10.141-51.2 10.142v0c-0.973 0.024-2.118 0.038-3.267 0.038-77.748 0-140.776-63.027-140.776-140.776s63.027-140.776 140.776-140.776c77.748 0 140.776 63.027 140.776 140.776 0 0.004 0 0.008 0 0.011v-0.001c0 0.061 0 0.133 0 0.205 0 22.459-5.182 43.708-14.416 62.616l0.373-0.845c0-0.091 0.001-0.199 0.001-0.307 0-36.28-29.027-65.781-65.124-66.545l-0.071-0.001z" />
<glyph unicode="&#xe922;" glyph-name="play-media" horiz-adv-x="1394" d="M697.047-63.959c-210.238 0.101-417.309 13.195-620.583 38.522l24.374-2.477c-24.293 3-43.76 20.629-49.454 43.684l-0.083 0.399c-32.653 129.733-51.39 278.665-51.39 431.974s18.737 302.243 54.046 444.635l-2.656-12.661c5.78 23.47 25.239 41.119 49.251 44.136l0.286 0.029c178.999 22.774 386.096 35.771 596.23 35.771 210.136 0 417.237-12.997 620.542-38.232l-24.312 2.461c24.167-3.165 43.481-20.78 49.126-43.766l0.083-0.399c32.685-129.731 51.441-278.662 51.441-431.974s-18.756-302.243-54.098-444.624l2.657 12.65c-5.714-23.376-25.042-40.976-48.919-44.053l-0.29-0.030c-178.903-22.841-385.989-35.934-596.111-36.046h-0.139zM155.214 82.561c162.575-19.257 350.89-30.244 541.771-30.244 190.878 0 379.19 10.987 564.339 32.363l-22.567-2.119c24.95 109.878 39.247 236.060 39.247 365.582 0 129.523-14.297 255.707-41.4 377.059l2.153-11.477c-162.58 19.281-350.891 30.282-541.771 30.282s-379.191-11.001-564.333-32.403l22.562 2.121c-24.953-109.877-39.253-236.060-39.253-365.582s14.299-255.705 41.405-377.056l-2.153 11.473zM578.371 163.387c-45.122 0.813-81.388 37.583-81.388 82.823 0 1.765 0.055 3.516 0.164 5.253l-0.012-0.238v393.673c-0.098 1.512-0.154 3.278-0.154 5.057 0 45.249 36.263 82.028 81.312 82.862l0.078 0.001c17.663-0.184 34.126-5.161 48.197-13.689l-0.423 0.238 340.773-196.836c27.665-13.826 46.329-41.937 46.329-74.408s-18.665-60.582-45.85-74.191l-0.479-0.217-340.896-196.836c-13.611-8.277-30.030-13.252-47.595-13.45h-0.055zM613.186 592.777v-289.39l250.433 144.716-250.433 144.634z" />
<glyph unicode="&#xe923;" glyph-name="right-circle" d="M512-64c-282.71 0.079-511.861 229.279-511.861 512 0 282.77 229.23 512 512 512s512-229.23 512-512c0-141.4-57.32-269.413-149.992-362.069l-0.001-0.001c-92.138-92.616-219.681-149.933-360.611-149.933-0.54 0-1.079 0.001-1.618 0.003h0.083zM512 873.045c-234.715-0.041-424.973-190.324-424.973-425.045 0-234.746 190.299-425.045 425.045-425.045s425.045 190.299 425.045 425.045c0 117.41-47.605 223.701-124.565 300.625l-0.002 0.002c-76.503 76.858-182.381 124.42-299.367 124.42-0.416 0-0.832-0.001-1.248-0.002h0.065zM406.735 194.030c-23.958 0.099-43.342 19.543-43.342 43.515 0 11.992 4.851 22.852 12.698 30.723l179.808 179.731-179.809 179.732c-6.648 7.591-10.704 17.599-10.704 28.555 0 23.991 19.448 43.439 43.439 43.439 10.955 0 20.963-4.055 28.605-10.747l-0.050 0.043 210.531-210.454c7.819-7.854 12.652-18.685 12.652-30.645s-4.833-22.791-12.654-30.647l-210.529-210.452c-7.825-7.856-18.653-12.718-30.615-12.718-0.010 0-0.021 0-0.031 0h0.002z" />
<glyph unicode="&#xe924;" glyph-name="q-login" d="M348.355 555.644c0.575 23.279 7.875 44.744 20.019 62.658l-0.262-0.41c14.451 22.072 33.852 39.776 56.698 51.826l0.829 0.398c24.444 13.069 53.468 20.746 84.285 20.746 1.42 0 2.837-0.016 4.249-0.049l-0.21 0.004c1.182 0.027 2.574 0.042 3.97 0.042 28.602 0 55.711-6.388 79.98-17.815l-1.147 0.486c22.841-10.639 41.613-26.708 55.193-46.603l0.299-0.465c12.239-18.026 19.54-40.265 19.54-64.21 0-0.178 0-0.357-0.001-0.535v0.027c0.019-0.731 0.030-1.593 0.030-2.456 0-16.722-4.122-32.482-11.405-46.318l0.261 0.545c-7.371-13.698-16.194-25.462-26.506-35.731l-0.005-0.005q-15.398-15.035-55.202-50.844c-6.252-5.638-12.012-11.398-17.465-17.441l-0.185-0.209c-3.691-4.067-6.946-8.643-9.623-13.578l-0.182-0.368c-1.857-3.564-3.56-7.753-4.875-12.111l-0.137-0.527q-1.743-6.247-5.302-21.79c-1.406-18.9-17.086-33.701-36.223-33.701-0.8 0-1.594 0.026-2.381 0.077l0.107-0.006c-0.296-0.008-0.644-0.012-0.993-0.012-10.613 0-20.249 4.184-27.348 10.993l0.014-0.013c-7.181 7.746-11.586 18.154-11.586 29.591 0 1.089 0.040 2.168 0.118 3.237l-0.008-0.143c-0.037 1.095-0.059 2.382-0.059 3.673 0 30.294 11.708 57.854 30.847 78.4l-0.064-0.069c11.843 12.476 24.089 24.147 36.897 35.184l0.655 0.552q20.701 18.159 29.853 27.383c5.998 5.934 11.161 12.695 15.31 20.1l0.234 0.455c3.976 6.952 6.321 15.28 6.321 24.156 0 0.139-0.001 0.277-0.002 0.416v-0.021c0.003 0.227 0.005 0.495 0.005 0.764 0 17.008-7.418 32.283-19.196 42.766l-0.057 0.050c-12.393 11.079-28.841 17.852-46.87 17.852-0.989 0-1.973-0.020-2.952-0.061l0.14 0.005c-1.73 0.155-3.743 0.243-5.777 0.243-17.998 0-34.381-6.912-46.64-18.227l0.047 0.043c-12.653-14.813-22.411-32.514-28.145-51.941l-0.255-1.009q-11.113-36.317-41.765-36.317c-0.213-0.004-0.465-0.006-0.717-0.006-11.74 0-22.334 4.903-29.847 12.774l-0.015 0.016c-7.435 6.908-12.169 16.635-12.492 27.471l-0.001 0.058zM506.335 200.97c-0.233-0.004-0.507-0.006-0.782-0.006-12.962 0-24.791 4.85-33.771 12.835l0.052-0.045c-8.99 8.237-14.607 20.030-14.607 33.136 0 0.94 0.029 1.874 0.086 2.8l-0.006-0.127c-0.004 0.22-0.006 0.48-0.006 0.74 0 13.218 5.578 25.134 14.508 33.521l0.024 0.023c8.692 8.585 20.644 13.888 33.833 13.888 0.414 0 0.826-0.005 1.237-0.016l-0.061 0.001c0.262 0.005 0.57 0.008 0.88 0.008 26.115 0 47.285-21.17 47.285-47.285 0-0.309-0.003-0.618-0.009-0.926l0.001 0.046c0.039-0.7 0.061-1.52 0.061-2.345 0-13.136-5.606-24.963-14.557-33.218l-0.031-0.028c-8.731-8.021-20.426-12.937-33.269-12.937-0.306 0-0.611 0.003-0.915 0.008l0.046-0.001zM511.927-64c-282.732 0.050-511.912 229.261-511.912 512 0 282.77 229.23 512 512 512s512-229.23 512-512c0-141.37-57.296-269.359-149.933-362.010v0c-92.115-92.65-219.657-149.992-360.592-149.992-0.549 0-1.099 0.001-1.648 0.003h0.085zM511.927 872.984c-234.751-0.001-425.055-190.305-425.055-425.057s190.304-425.057 425.057-425.057c234.752 0 425.057 190.304 425.057 425.057 0 117.413-47.606 223.706-124.568 300.632l-0.002 0.002c-76.504 76.861-182.384 124.424-299.374 124.424-0.392 0-0.784-0.001-1.176-0.002h0.061z" />
<glyph unicode="&#xe925;" glyph-name="pass-login" horiz-adv-x="712" d="M681.232 581.424c-18.789 18.853-44.779 30.518-73.494 30.518-0.006 0-0.013 0-0.019 0h0.001v108.334c-0.256 67.159-28.797 127.602-74.323 170.073l-0.137 0.127c-46.403 43.073-108.778 69.501-177.326 69.501s-130.923-26.429-177.491-69.653l0.165 0.152c-45.663-42.598-74.204-103.041-74.46-170.153v-108.381c-57.417-0.112-103.935-46.616-104.070-104.018v-467.854c0.112-57.431 46.639-103.958 104.059-104.070h503.582c57.423 0.112 103.941 46.644 104.031 104.061v467.811c-0.002 28.733-11.666 54.741-30.516 73.55l-0.002 0.002zM173.516 720.276c0.208 47.305 20.416 89.85 52.599 119.645l0.107 0.098c34.001 31.355 79.601 50.582 129.693 50.582s95.692-19.226 129.825-50.702l-0.132 0.12c32.302-29.886 52.514-72.436 52.706-119.709v-108.369h-364.798zM642.384 40.070c-0.111-19.107-15.56-34.57-34.651-34.703h-503.663c-19.113 0.112-34.575 15.587-34.664 34.695v467.811c0.111 19.099 15.564 34.552 34.653 34.664h503.582c19.090-0.133 34.53-15.573 34.664-34.651v-0.013zM415.688 334.751c0 0.015 0 0.033 0 0.052 0 33.055-26.797 59.852-59.852 59.852s-59.852-26.797-59.852-59.852c0-20.26 10.067-38.17 25.472-48.999l0.191-0.127-15.121-124.995h94.555l-14.845 122.823c17.696 10.516 29.386 29.508 29.452 51.236v0.010z" />
<glyph unicode="&#xe926;" glyph-name="user-login" horiz-adv-x="906" d="M606.132 453.629c74.818 50.288 123.39 134.611 123.39 230.278 0 152.747-123.826 276.573-276.573 276.573s-276.573-123.826-276.573-276.573c0-95.667 48.572-179.989 122.401-229.651l0.989-0.627c-176.309-64.906-299.785-231.423-299.785-426.779 0-32.16 3.346-63.538 9.71-93.806l-0.52 2.956 70.55 14.556c-4.936 23.090-7.763 49.62-7.763 76.809v0.001c0 0.014 0 0.029 0 0.045 0 205.619 162.928 373.183 366.726 380.636l0.68 0.020c4.513 0 9.025-0.728 13.586-0.728s9.122 0.485 13.635 0.728c204.451-7.472 367.357-175.015 367.357-380.607 0-0.033 0-0.066 0-0.099v0.005c0-0.068 0-0.148 0-0.227 0-27.108-2.809-53.56-8.152-79.080l0.437 2.498 70.502-14.556c5.848 27.321 9.197 58.71 9.197 90.881 0 195.35-123.481 361.859-296.649 425.733l-3.144 1.015zM308.452 539.075c-37.3 37.117-60.384 88.492-60.384 145.258 0 113.167 91.74 204.907 204.907 204.907s204.907-91.74 204.907-204.907c0-108.379-84.141-197.105-190.662-204.419l-0.636-0.035c-4.513 0-9.074 0.34-13.635 0.34s-9.122 0-13.635-0.34c-51.375 3.382-97.050 25.36-130.862 59.195l-0.001 0.001z" />
</font>
</defs>
</svg>
